<svg id="visual" viewBox="0 0 900 600" width="900" height="600" xmlns="http://www.w3.org/2000/svg" xmlns:xlink="http://www.w3.org/1999/xlink" version="1.1"><rect x="0" y="0" width="900" height="600" fill="#001220"></rect><path d="M0 193L21.5 194.2C43 195.3 86 197.7 128.8 204C171.7 210.3 214.3 220.7 257.2 224.7C300 228.7 343 226.3 385.8 218.2C428.7 210 471.3 196 514.2 192.5C557 189 600 196 642.8 204C685.7 212 728.3 221 771.2 217.8C814 214.7 857 199.3 878.5 191.7L900 184L900 0L878.5 0C857 0 814 0 771.2 0C728.3 0 685.7 0 642.8 0C600 0 557 0 514.2 0C471.3 0 428.7 0 385.8 0C343 0 300 0 257.2 0C214.3 0 171.7 0 128.8 0C86 0 43 0 21.5 0L0 0Z" fill="#fa7268"></path><path d="M0 171L21.5 170C43 169 86 167 128.8 166.2C171.7 165.3 214.3 165.7 257.2 166.3C300 167 343 168 385.8 167.3C428.7 166.7 471.3 164.3 514.2 168.8C557 173.3 600 184.7 642.8 193C685.7 201.3 728.3 206.7 771.2 197.7C814 188.7 857 165.3 878.5 153.7L900 142L900 0L878.5 0C857 0 814 0 771.2 0C728.3 0 685.7 0 642.8 0C600 0 557 0 514.2 0C471.3 0 428.7 0 385.8 0C343 0 300 0 257.2 0C214.3 0 171.7 0 128.8 0C86 0 43 0 21.5 0L0 0Z" fill="#ef5f67"></path><path d="M0 134L21.5 132.8C43 131.7 86 129.3 128.8 126.3C171.7 123.3 214.3 119.7 257.2 125.5C300 131.3 343 146.7 385.8 147.3C428.7 148 471.3 134 514.2 124.3C557 114.7 600 109.3 642.8 112.7C685.7 116 728.3 128 771.2 133.3C814 138.7 857 137.3 878.5 136.7L900 136L900 0L878.5 0C857 0 814 0 771.2 0C728.3 0 685.7 0 642.8 0C600 0 557 0 514.2 0C471.3 0 428.7 0 385.8 0C343 0 300 0 257.2 0C214.3 0 171.7 0 128.8 0C86 0 43 0 21.5 0L0 0Z" fill="#e34c67"></path><path d="M0 84L21.5 85.3C43 86.7 86 89.3 128.8 88.8C171.7 88.3 214.3 84.7 257.2 84.2C300 83.7 343 86.3 385.8 86C428.7 85.7 471.3 82.3 514.2 82.7C557 83 600 87 642.8 91C685.7 95 728.3 99 771.2 96.7C814 94.3 857 85.7 878.5 81.3L900 77L900 0L878.5 0C857 0 814 0 771.2 0C728.3 0 685.7 0 642.8 0C600 0 557 0 514.2 0C471.3 0 428.7 0 385.8 0C343 0 300 0 257.2 0C214.3 0 171.7 0 128.8 0C86 0 43 0 21.5 0L0 0Z" fill="#d53867"></path><path d="M0 47L21.5 45.7C43 44.3 86 41.7 128.8 43.2C171.7 44.7 214.3 50.3 257.2 48.7C300 47 343 38 385.8 38.7C428.7 39.3 471.3 49.7 514.2 51.7C557 53.7 600 47.3 642.8 48.5C685.7 49.7 728.3 58.3 771.2 59C814 59.7 857 52.3 878.5 48.7L900 45L900 0L878.5 0C857 0 814 0 771.2 0C728.3 0 685.7 0 642.8 0C600 0 557 0 514.2 0C471.3 0 428.7 0 385.8 0C343 0 300 0 257.2 0C214.3 0 171.7 0 128.8 0C86 0 43 0 21.5 0L0 0Z" fill="#c62368"></path></svg>