<svg id="visual" viewBox="0 0 900 600" width="900" height="600" xmlns="http://www.w3.org/2000/svg" xmlns:xlink="http://www.w3.org/1999/xlink" version="1.1"><rect x="0" y="0" width="900" height="600" fill="#001220"></rect><path d="M0 372L21.5 378C43 384 86 396 128.8 399.3C171.7 402.7 214.3 397.3 257.2 393.5C300 389.7 343 387.3 385.8 395.8C428.7 404.3 471.3 423.7 514.2 419.5C557 415.3 600 387.7 642.8 379.3C685.7 371 728.3 382 771.2 381C814 380 857 367 878.5 360.5L900 354L900 601L878.5 601C857 601 814 601 771.2 601C728.3 601 685.7 601 642.8 601C600 601 557 601 514.2 601C471.3 601 428.7 601 385.8 601C343 601 300 601 257.2 601C214.3 601 171.7 601 128.8 601C86 601 43 601 21.5 601L0 601Z" fill="#fa7268"></path><path d="M0 464L21.5 456C43 448 86 432 128.8 431.7C171.7 431.3 214.3 446.7 257.2 447C300 447.3 343 432.7 385.8 434C428.7 435.3 471.3 452.7 514.2 462.2C557 471.7 600 473.3 642.8 464C685.7 454.7 728.3 434.3 771.2 430.3C814 426.3 857 438.7 878.5 444.8L900 451L900 601L878.5 601C857 601 814 601 771.2 601C728.3 601 685.7 601 642.8 601C600 601 557 601 514.2 601C471.3 601 428.7 601 385.8 601C343 601 300 601 257.2 601C214.3 601 171.7 601 128.8 601C86 601 43 601 21.5 601L0 601Z" fill="#ef5f67"></path><path d="M0 498L21.5 490C43 482 86 466 128.8 468.2C171.7 470.3 214.3 490.7 257.2 494.3C300 498 343 485 385.8 479.5C428.7 474 471.3 476 514.2 475.8C557 475.7 600 473.3 642.8 474C685.7 474.7 728.3 478.3 771.2 476.5C814 474.7 857 467.3 878.5 463.7L900 460L900 601L878.5 601C857 601 814 601 771.2 601C728.3 601 685.7 601 642.8 601C600 601 557 601 514.2 601C471.3 601 428.7 601 385.8 601C343 601 300 601 257.2 601C214.3 601 171.7 601 128.8 601C86 601 43 601 21.5 601L0 601Z" fill="#e34c67"></path><path d="M0 499L21.5 502.2C43 505.3 86 511.7 128.8 516.2C171.7 520.7 214.3 523.3 257.2 521C300 518.7 343 511.3 385.8 507C428.7 502.7 471.3 501.3 514.2 499.7C557 498 600 496 642.8 493.3C685.7 490.7 728.3 487.3 771.2 490.5C814 493.7 857 503.3 878.5 508.2L900 513L900 601L878.5 601C857 601 814 601 771.2 601C728.3 601 685.7 601 642.8 601C600 601 557 601 514.2 601C471.3 601 428.7 601 385.8 601C343 601 300 601 257.2 601C214.3 601 171.7 601 128.8 601C86 601 43 601 21.5 601L0 601Z" fill="#d53867"></path><path d="M0 533L21.5 535.2C43 537.3 86 541.7 128.8 546C171.7 550.3 214.3 554.7 257.2 557.2C300 559.7 343 560.3 385.8 558.7C428.7 557 471.3 553 514.2 548.2C557 543.3 600 537.7 642.8 541.7C685.7 545.7 728.3 559.3 771.2 561.3C814 563.3 857 553.7 878.5 548.8L900 544L900 601L878.5 601C857 601 814 601 771.2 601C728.3 601 685.7 601 642.8 601C600 601 557 601 514.2 601C471.3 601 428.7 601 385.8 601C343 601 300 601 257.2 601C214.3 601 171.7 601 128.8 601C86 601 43 601 21.5 601L0 601Z" fill="#c62368"></path></svg>